<?xml version="1.0" encoding="utf-8"?>
<!-- Generator: Adobe Illustrator 26.0.3, SVG Export Plug-In . SVG Version: 6.00 Build 0)  -->
<svg version="1.1" id="Layer_1" xmlns="http://www.w3.org/2000/svg" xmlns:xlink="http://www.w3.org/1999/xlink" x="0px" y="0px"
	 viewBox="0 0 958 400" style="enable-background:new 0 0 958 400;" xml:space="preserve">
<style type="text/css">
	.st0{fill:#BD0707;}
	.st1{clip-path:url(#SVGID_00000089570887234854500060000006659900096258503336_);fill:#FFFFFF;}
	.st2{clip-path:url(#SVGID_00000158715018007103378120000014521351837201411508_);fill:#FFFFFF;}
	.st3{clip-path:url(#SVGID_00000108288500803041050690000013657961651300011679_);fill:#FFFFFF;}
	.st4{clip-path:url(#SVGID_00000056428092513032047090000004120738209309094568_);fill:#FFFFFF;}
</style>
<rect class="st0" width="958" height="400"/>
<g>
	<defs>
		<rect id="SVGID_1_" x="795" y="300" width="168" height="100"/>
	</defs>
	<clipPath id="SVGID_00000109735942594248802350000003607292349244377748_">
		<use xlink:href="#SVGID_1_"  style="overflow:visible;"/>
	</clipPath>
	<path style="clip-path:url(#SVGID_00000109735942594248802350000003607292349244377748_);fill:#FFFFFF;" d="M861.2,367
		c21.6-20.7,40.1-44.5,54.6-70.6c25.7-45.5,71.4-88.8,119.3-113.1c2.4-1.2,4.6-3.8,5-5.8s-1.2-2.6-3.5-1.4
		c-51.4,26-100.5,72.6-128.1,121.5c-28.4,50.3-67.4,87.3-119.3,113.1c-2.4,1.2-4.6,3.7-5.1,5.7s1.1,2.7,3.5,1.5
		C814.6,404.7,839.4,387.5,861.2,367z"/>
	<path style="clip-path:url(#SVGID_00000109735942594248802350000003607292349244377748_);fill:#FFFFFF;" d="M1060.4,201.1
		c-51.4,26.1-100.5,72.6-128.1,121.5c-28.4,50.3-67.4,87.3-119.3,113.1c-2.4,1.2-4.6,3.7-5.1,5.7s1.1,2.7,3.5,1.5
		c27.9-13.9,52.3-30.7,73.5-50.9c21.7-20.7,40.1-44.5,54.6-70.6c25.7-45.4,71.4-88.8,119.4-113.1c2.4-1.2,4.6-3.8,5-5.8
		S1062.8,199.9,1060.4,201.1z"/>
	<path style="clip-path:url(#SVGID_00000109735942594248802350000003607292349244377748_);fill:#FFFFFF;" d="M1084.2,226.2
		c-51.4,26.1-100.5,72.6-128.1,121.5C927.7,398,888.7,435,836.8,460.8c-2.4,1.2-4.6,3.8-5.1,5.7s1.1,2.7,3.5,1.5
		c26.9-13.2,51.7-30.4,73.6-50.9c21.6-20.7,40.1-44.5,54.6-70.6c25.7-45.5,71.4-88.8,119.3-113.1c2.4-1.2,4.6-3.8,5-5.8
		S1086.6,225,1084.2,226.2z"/>
</g>
<g>
	<defs>
		<rect id="SVGID_00000030450230733177866830000001155116459255123339_" x="348" y="323" width="108" height="77"/>
	</defs>
	<clipPath id="SVGID_00000079488199862641852830000008974050744363310241_">
		<use xlink:href="#SVGID_00000030450230733177866830000001155116459255123339_"  style="overflow:visible;"/>
	</clipPath>
	<path style="clip-path:url(#SVGID_00000079488199862641852830000008974050744363310241_);fill:#FFFFFF;" d="M533.4,562.8
		c-19.5-22.7-42.4-42.3-67.8-58.2c-44.1-28-85-75.9-106.9-125c-1.1-2.4-3.5-4.8-5.5-5.3s-2.7,1-1.6,3.5
		C375.1,430.5,419,482,466.5,512c48.8,30.9,83.7,71.8,106.8,124.9c1.1,2.4,3.5,4.8,5.5,5.4s2.7-1,1.7-3.4
		C568.6,611.3,552.8,585.7,533.4,562.8z"/>
	<path style="clip-path:url(#SVGID_00000079488199862641852830000008974050744363310241_);fill:#FFFFFF;" d="M377.9,355.4
		c23.4,52.7,67.4,104.1,114.8,134.2c48.8,30.9,83.7,71.8,106.8,124.9c1,2.4,3.5,4.8,5.5,5.4s2.7-1,1.7-3.4
		c-23.5-55.5-63.6-102.4-114.8-134.2c-44.1-28-85-75.8-106.9-125c-1.1-2.4-3.5-4.8-5.5-5.3S376.9,352.9,377.9,355.4z"/>
	<path style="clip-path:url(#SVGID_00000079488199862641852830000008974050744363310241_);fill:#FFFFFF;" d="M404.2,332.9
		C427.6,385.6,471.6,437,519,467.1c48.8,30.9,83.7,71.8,106.8,124.9c1.1,2.4,3.5,4.8,5.5,5.4s2.7-1,1.7-3.4
		c-23.5-55.5-63.6-102.5-114.8-134.3c-44.1-28-85-75.8-106.9-125c-1.1-2.4-3.5-4.8-5.5-5.3S403.1,330.4,404.2,332.9z"/>
</g>
<g>
	<defs>
		<rect id="SVGID_00000016790418019992925620000009416665601918698412_" x="601" width="222" height="140"/>
	</defs>
	<clipPath id="SVGID_00000084528558336656669530000003728358552045980044_">
		<use xlink:href="#SVGID_00000016790418019992925620000009416665601918698412_"  style="overflow:visible;"/>
	</clipPath>
	<path style="clip-path:url(#SVGID_00000084528558336656669530000003728358552045980044_);fill:#FFFFFF;" d="M683.2,60.2
		c21.6-20.7,40.1-44.5,54.6-70.6c25.7-45.5,71.4-88.8,119.3-113.1c2.4-1.2,4.6-3.8,5-5.8s-1.2-2.6-3.5-1.4
		C807.2-104.6,758.1-58.1,730.5-9.2c-28.4,50.3-67.4,87.3-119.3,113.1c-2.4,1.2-4.6,3.8-5.1,5.8s1.1,2.7,3.5,1.5
		C636.6,97.9,661.4,80.8,683.2,60.2z"/>
	<path style="clip-path:url(#SVGID_00000084528558336656669530000003728358552045980044_);fill:#FFFFFF;" d="M882.4-105.6
		C831-79.5,781.9-33,754.3,15.9C725.9,66.2,686.9,103.2,635,129c-2.4,1.2-4.6,3.8-5.1,5.8s1.1,2.7,3.5,1.5
		c26.9-13.2,51.8-30.3,73.6-50.9c21.6-20.7,40.1-44.5,54.6-70.6C787.3-30.8,833-74.1,881-98.4c2.4-1.2,4.6-3.8,5-5.8
		S884.8-106.8,882.4-105.6z"/>
	<path style="clip-path:url(#SVGID_00000084528558336656669530000003728358552045980044_);fill:#FFFFFF;" d="M906.2-80.5
		C854.8-54.4,805.7-7.8,778.1,41c-28.4,50.3-67.4,87.3-119.3,113.1c-2.4,1.2-4.6,3.8-5.1,5.8s1.1,2.7,3.5,1.5
		c26.9-13.2,51.7-30.3,73.6-50.9c21.6-20.7,40.1-44.5,54.6-70.6C811.1-5.7,856.8-49,904.8-73.3c2.4-1.2,4.6-3.8,5-5.8
		S908.6-81.7,906.2-80.5z"/>
</g>
<g>
	<defs>
		<rect id="SVGID_00000065778343317057289410000011646975644763286928_" width="105" height="120"/>
	</defs>
	<clipPath id="SVGID_00000122713549510047727210000011287221955772402320_">
		<use xlink:href="#SVGID_00000065778343317057289410000011646975644763286928_"  style="overflow:visible;"/>
	</clipPath>
	<path style="clip-path:url(#SVGID_00000122713549510047727210000011287221955772402320_);fill:#FFFFFF;" d="M-6.8,32.2
		c21.6-20.7,40.1-44.5,54.6-70.6c25.7-45.5,71.4-88.8,119.3-113.1c2.4-1.2,4.6-3.8,5-5.8s-1.2-2.6-3.5-1.4
		C117.2-132.6,68.1-86.1,40.5-37.2C12.1,13.1-26.9,50.1-78.8,75.9c-2.4,1.2-4.6,3.8-5.1,5.8s1.1,2.7,3.5,1.5
		C-53.4,69.9-28.6,52.8-6.8,32.2z"/>
	<path style="clip-path:url(#SVGID_00000122713549510047727210000011287221955772402320_);fill:#FFFFFF;" d="M192.4-133.6
		C141-107.5,91.9-61,64.3-12.1C35.9,38.2-3.1,75.2-55,101c-2.4,1.2-4.6,3.8-5.1,5.8s1.1,2.7,3.5,1.5c26.9-13.2,51.8-30.4,73.6-51
		c21.6-20.7,40.1-44.5,54.6-70.6C97.3-58.8,143-102.1,191-126.4c2.4-1.2,4.6-3.8,5-5.8S194.8-134.8,192.4-133.6z"/>
	<path style="clip-path:url(#SVGID_00000122713549510047727210000011287221955772402320_);fill:#FFFFFF;" d="M216.2-108.5
		C164.8-82.4,115.7-35.8,88.1,13C59.7,63.3,20.7,100.3-31.2,126.1c-2.4,1.2-4.6,3.8-5.1,5.8s1.1,2.7,3.5,1.5
		c27-13.3,51.8-30.4,73.6-51C62.4,61.8,80.9,38,95.4,11.8c25.7-45.5,71.4-88.8,119.3-113.1c2.4-1.2,4.6-3.8,5-5.8
		S218.6-109.7,216.2-108.5z"/>
</g>
</svg>
