<svg xmlns="http://www.w3.org/2000/svg" viewBox="0 0 80 80"><defs><style>.a{fill:#bd0707;}.b{fill:#fff;}</style></defs><path class="a" d="M37.85.05a40,40,0,0,0-1.16,79.84,48.75,48.75,0,0,0,6.62,0A40,40,0,0,0,52.62,2,40.47,40.47,0,0,0,37.85.05Zm5.63.38a38.75,38.75,0,0,1,9.34,2A39.77,39.77,0,0,1,79.39,34.9,32.09,32.09,0,0,1,79.68,40a32.17,32.17,0,0,1-.29,5.11,39.73,39.73,0,0,1-79-1.86,51.09,51.09,0,0,1-.06-5.41A39.72,39.72,0,0,1,34.89.61c1-.12,1.53-.17,3.19-.29C38.82.27,42.57.34,43.48.43Z" transform="translate(0 0)"/><path class="a" d="M37.87,2.71A37.41,37.41,0,0,0,5.22,26.37,38.92,38.92,0,0,0,2.78,36.82a52.23,52.23,0,0,0,0,6.38A37.38,37.38,0,0,0,34.68,77a31.32,31.32,0,0,0,5.32.35,33.92,33.92,0,0,0,7.12-.65A37.35,37.35,0,0,0,77.21,43.2a48.51,48.51,0,0,0,0-6.38A38.48,38.48,0,0,0,75.38,28,37.35,37.35,0,0,0,37.87,2.71Zm3,3.69a9.3,9.3,0,0,1,2.76.33,1.48,1.48,0,0,1,1.09,1.54,1.35,1.35,0,0,1-1,1.44l-.31.13.28.1a1.86,1.86,0,0,1,.94.83,2.26,2.26,0,0,1,0,1.48,1.84,1.84,0,0,1-1,1c-.6.22-1.15.25-3.27.15-1.07,0-2-.1-2-.12s.18-4.91.27-6.33l0-.61h.21Zm-5.28.52.23.07,0,.91,0,.91-.23,0a5.85,5.85,0,0,0-2.14-.08c-.53.08-.71.18-.71.4s.16.35,1.28.45a8.57,8.57,0,0,1,1.38.2,1.86,1.86,0,0,1,1.46,2.07,1.85,1.85,0,0,1-.63,1.37,5.61,5.61,0,0,1-4.53,1l-.3-.06,0-.89a8.09,8.09,0,0,1,0-.92,1.92,1.92,0,0,1,.49,0,6,6,0,0,0,2.3,0c.48-.15.58-.23.55-.47s-.19-.29-1.3-.4c-1.48-.14-2.11-.39-2.51-1a1.86,1.86,0,0,1-.34-1.22,2.07,2.07,0,0,1,1.35-1.92,8,8,0,0,1,1.72-.47A8.72,8.72,0,0,1,35.54,6.92Zm13.28.55a6.59,6.59,0,0,1,1,.38s-.31.94-.68,2a9.82,9.82,0,0,0-.68,2.36,1,1,0,0,0,.11.54,1.32,1.32,0,0,0,1,.47.54.54,0,0,0,.5-.18c.26-.24.36-.49,1.08-2.67.35-1.05.66-1.91.68-1.91s1.94.63,2,.68a44.91,44.91,0,0,1-1.55,4.55c-.77,1.46-2.44,1.84-4.32,1a2.62,2.62,0,0,1-1.75-2.84,47,47,0,0,1,1.57-4.71ZM28.17,10.85l-.12,2.49.57,1.13c.31.62.56,1.14.56,1.16s-1.86,1-1.92,1a12.1,12.1,0,0,1-.58-1.15l-.55-1.14L24.08,12.9c-1.13-.77-2-1.42-2-1.44a22.37,22.37,0,0,1,2-1s.51.35,1.05.76,1,.78,1.06.8.07-.23.06-1.3V9.36l1-.51,1-.5S28.23,9.48,28.17,10.85Zm30.3,1a5.87,5.87,0,0,1,2.8,2.2l.12.19-.61.43-.78.57-.19.14-.18-.31A3.1,3.1,0,0,0,58.43,14a1.53,1.53,0,0,0-1.35-.06,2.45,2.45,0,0,0-1,1,1.36,1.36,0,0,0-.17.79,1.12,1.12,0,0,0,.16.73A2.78,2.78,0,0,0,58,17.55l.41.08s-.63,1.76-.66,1.8A3.72,3.72,0,0,1,56.45,19c-2.45-1.14-3.36-3.08-2.37-5a4,4,0,0,1,2.47-2.2A4,4,0,0,1,58.47,11.89ZM23.85,16.12c1,.6,1.79,1.11,1.77,1.13s-.37.34-.8.71-.81.65-.88.63l-.58-.33a5.9,5.9,0,0,0-.52-.3c-.05,0-1.65,1.35-1.72,1.45s0,.28.2.67.24.62.17.69a13.87,13.87,0,0,1-1.59,1.28c-.06-.06-2.67-6.81-2.65-6.83l1.08-.91,1.05-.89,1.34.81Zm40.49.6.71.84L64,18.49a8.43,8.43,0,0,0-1,.94s.74-.07,1.59-.16l1.68-.19c.14,0,.28.15,1.62,1.74.05.05.08.11.07.12l-2.08.16-2.05.13-.06.21-.51,2c-.24,1-.46,1.88-.49,1.93s-.21-.11-.87-.88l-.83-1,.46-1.63c.26-.89.46-1.63.45-1.65s-.5.39-1.08.88c-.77.66-1.07.88-1.13.84a10.29,10.29,0,0,1-.73-.82l-.65-.76.16-.16c.22-.21,5.1-4.37,5.13-4.37S64,16.27,64.34,16.72Zm-21.56,0a24.17,24.17,0,0,1,11.73,4.7,26,26,0,0,1,5.15,5.32,23.88,23.88,0,0,1,4,9.52A19.13,19.13,0,0,1,64,40.57a21,21,0,0,1-.74,6,23.48,23.48,0,0,1-6.47,11.14,23.75,23.75,0,0,1-14.09,6.72,32.22,32.22,0,0,1-5.38,0A24,24,0,0,1,26.17,60.2a25.53,25.53,0,0,1-5.3-5.13,24.1,24.1,0,0,1-4.73-11.81A21,21,0,0,1,16,40.57a21,21,0,0,1,.11-2.69A24.1,24.1,0,0,1,20,27.33a22.19,22.19,0,0,1,3.33-4,23.82,23.82,0,0,1,15.12-6.76A39.86,39.86,0,0,1,42.78,16.69ZM16.6,20.57c1.35,1.4,2.45,2.56,2.46,2.59a10.34,10.34,0,0,1-.57,1c-.45.73-.62,1-.7.95l-2.17-.66c-1.14-.35-2.07-.64-2.08-.63s.69.74,1.55,1.64a13,13,0,0,1,1.53,1.71c-.07.17-1.12,1.85-1.18,1.87S8.69,27,8.63,27a14.37,14.37,0,0,1,1-1.69L9.83,25l1.89.82,2,.89a14.39,14.39,0,0,0-1.43-1.53c-.88-.87-1.59-1.61-1.59-1.64s1.26-2.1,1.3-2.1l2.16.71a11.59,11.59,0,0,0,2,.6l-1.7-1.42A10.15,10.15,0,0,1,13,19.88C13,19.72,14.07,18,14.11,18S15.25,19.17,16.6,20.57ZM69,23.75c1,.5,1.92,2.22,2.07,4l0,.44-.83.22c-.46.12-.87.22-.92.22s-.09-.13-.12-.55a5.4,5.4,0,0,0-.43-1.81c-.19-.43-.31-.55-.54-.52s-.29.29-.14,1.17c.07.4.14.89.16,1.1a2.3,2.3,0,0,1-.64,1.93,2.61,2.61,0,0,1-1.21.49,2.69,2.69,0,0,1-2.44-1.57,6.75,6.75,0,0,1-.87-3v-.32l.83-.22.86-.23a3.64,3.64,0,0,1,.1.65,5.8,5.8,0,0,0,.51,1.95c.24.48.45.64.65.55a.37.37,0,0,0,.19-.22,5.47,5.47,0,0,0-.09-1,4.86,4.86,0,0,1,0-2.26A2,2,0,0,1,69,23.75ZM8.76,40.93a4.94,4.94,0,0,1,2,1.22l.25.26-.34.1a5.51,5.51,0,0,0-1.49.76c-.18.13-.33.22-.34.19s-.12-.22-.24-.43a3.57,3.57,0,0,0-2-1.51,2.87,2.87,0,0,1-.38-.15c-.06,0,.28-.28.58-.4A3.16,3.16,0,0,1,8.76,40.93Zm64.38,0c.35.12.75.37.69.44a2.87,2.87,0,0,1-.38.15,3.5,3.5,0,0,0-2,1.51c-.13.21-.23.4-.25.43s-.16-.06-.33-.19a5.72,5.72,0,0,0-1.5-.76l-.33-.1.24-.26a4.68,4.68,0,0,1,2.56-1.33A3.62,3.62,0,0,1,73.14,40.93Zm-66.79,1a3.1,3.1,0,0,1,1.94,1.54l.21.4-.27.3a5.74,5.74,0,0,0-1,1.7L7,46.4l-.32-.34a3.89,3.89,0,0,1-1.14-3.74c.1-.28.25-.54.31-.54Zm68.09.17a3.75,3.75,0,0,1-1,4l-.33.34-.19-.54a5.34,5.34,0,0,0-1-1.7l-.26-.3.2-.4A3,3,0,0,1,73,42.23a4.81,4.81,0,0,1,1.17-.43C74.26,41.81,74.36,41.94,74.44,42.09ZM12.89,43a.92.92,0,0,1,.34.21,7.69,7.69,0,0,1-.52,1.36,3.11,3.11,0,0,1-2,1.39,3.46,3.46,0,0,0-1.37.64,3.8,3.8,0,0,0-1.3,2l0,.12-.1-.12a2.84,2.84,0,0,1-.31-2.36A4.61,4.61,0,0,1,9,44.14,4.43,4.43,0,0,1,10.86,43,3.32,3.32,0,0,1,12.89,43ZM69.19,43a4.4,4.4,0,0,1,2,1.17,4.69,4.69,0,0,1,1.34,2.17,2.87,2.87,0,0,1-.32,2.36l-.09.12,0-.12a3.75,3.75,0,0,0-1.3-2A3.46,3.46,0,0,0,69.38,46a3.13,3.13,0,0,1-2-1.39,7.31,7.31,0,0,1-.51-1.36c0-.07.43-.28.69-.34A3.84,3.84,0,0,1,69.19,43ZM14,44.13c.8,1.72-.59,4.32-2.76,5.15a3.54,3.54,0,0,1-1.78.25c-.45-.07-1-.33-1-.43s.1-.29.19-.57a2.89,2.89,0,0,1,2.23-2.05,3.58,3.58,0,0,0,1.49-.72,3.73,3.73,0,0,0,1.1-1.62C13.69,43.53,13.69,43.53,14,44.13Zm52.67,0a3.94,3.94,0,0,0,1.1,1.61,3.62,3.62,0,0,0,1.5.72,3,3,0,0,1,1.28.61,3.13,3.13,0,0,1,.94,1.44c.09.28.18.53.19.57s-.54.36-1,.43a3.52,3.52,0,0,1-1.78-.25,5,5,0,0,1-2.82-3,3.64,3.64,0,0,1,0-1.93,3.42,3.42,0,0,1,.41-.76A3.36,3.36,0,0,1,66.65,44.15ZM57.57,62.09a6.17,6.17,0,0,1,.45.73s-.58.44-1.3.92-1.31.9-1.33.92a3.72,3.72,0,0,0,.42.7,7.37,7.37,0,0,0,.95-.59l1.09-.72L58,64l.44.68a5.54,5.54,0,0,1,.46.73,8.7,8.7,0,0,1-1,.72l-1,.71c-.08.07.39.77.49.74l1.34-.89c.69-.47,1.28-.86,1.31-.86a11.77,11.77,0,0,1,1,1.39s-4.37,3-4.46,3-3.85-5.54-3.89-5.7,4.35-3.07,4.45-3.08A6.7,6.7,0,0,1,57.57,62.09Zm-33.68.12a5.8,5.8,0,0,1,2.62,1.68c.4.46.63.81.57.88a16.76,16.76,0,0,1-1.52,1.07,1.61,1.61,0,0,1-.21-.32,3.55,3.55,0,0,0-1.2-1.18,1.55,1.55,0,0,0-1.33,0A2.34,2.34,0,0,0,21.64,66a1.31,1.31,0,0,0,.47,1.21,2.75,2.75,0,0,0,1.51.78l.47.11a8.83,8.83,0,0,1-.32.91c-.27.69-.37.89-.45.89a6.05,6.05,0,0,1-1.46-.57A4,4,0,0,1,19.43,66a3.12,3.12,0,0,1,.42-1.65,4,4,0,0,1,2.38-2.09A4,4,0,0,1,23.89,62.21Zm28.3,3.47a4.12,4.12,0,0,1,.24.81s-.71.29-1.51.59a13.65,13.65,0,0,0-1.47.61,2.79,2.79,0,0,0,.3.75s.33-.1.69-.24l1.18-.44.54-.19.3.8c.17.44.3.81.29.81l-1.17.45c-.63.23-1.17.44-1.2.46s.23.81.33.8.74-.25,1.54-.56,1.47-.53,1.48-.52.57,1.51.57,1.57-5,1.93-5.08,1.88S48.63,71.77,48,70a18.51,18.51,0,0,1-1.11-3.24c.09-.06,4.89-1.87,5-1.87A3.33,3.33,0,0,1,52.19,65.68Zm-21.9-.13a4.09,4.09,0,0,1,2.71,2,3.82,3.82,0,0,1-.15,3.3,3.48,3.48,0,0,1-4,1.91,4.07,4.07,0,0,1-2.84-2,2.81,2.81,0,0,1-.31-1.44,3.85,3.85,0,0,1,3-3.82A4.74,4.74,0,0,1,30.29,65.55Zm16,1.93c0,.29.08.68.1.88l0,.36-1.52.18-1.56.19a1.65,1.65,0,0,0,0,.48c.07.56-.09.52,1.43.33l1.07-.13A14.33,14.33,0,0,1,46,71.49a11.63,11.63,0,0,1-1.2.18c-.65.08-1.18.15-1.18.16A9.15,9.15,0,0,0,43.76,73c.07.62.13,1.16.12,1.21s-.25.12-1.05.22a6.61,6.61,0,0,1-1.06.08c-.05,0-.89-6.82-.86-6.85S45.65,67,46,67h.22Zm-8.73-.08c1.4.15,2.55.28,2.57.3a11,11,0,0,1-.16,1.7,10.75,10.75,0,0,1-1.48-.1l-1.55-.15c-.07,0-.1.09-.13.45a2.12,2.12,0,0,0,0,.47s.55.08,1.2.15l1.2.14S39,72.06,39,72.08s-.54,0-1.16-.1-1.18-.1-1.22-.09a4.9,4.9,0,0,0-.17,1.17c-.07.63-.13,1.16-.15,1.19a12.64,12.64,0,0,1-2.1-.2s.09-1.45.29-3.48c.3-2.91.36-3.43.45-3.43Z" transform="translate(0 0)"/><path class="a" d="M40.68,8.61c0,.34,0,.62,0,.64l1.21,0a.61.61,0,0,0,.37-.18.43.43,0,0,0,.19-.4c0-.51-.2-.64-1.17-.69l-.54,0Z" transform="translate(0 0)"/><path class="a" d="M40.59,10.76c0,.14,0,.43,0,.65l0,.4h.78c.93,0,1.09-.05,1.2-.41a.56.56,0,0,0-.27-.69,6.05,6.05,0,0,0-1.52-.19C40.61,10.51,40.59,10.56,40.59,10.76Z" transform="translate(0 0)"/><path class="a" d="M19.4,15.69a21,21,0,0,0,.93,2.14A10.6,10.6,0,0,0,21.38,17a10.71,10.71,0,0,0-1-.7A5,5,0,0,0,19.4,15.69Z" transform="translate(0 0)"/><path d="M38.79,17.94l-1,.09a22.62,22.62,0,0,0-8,2.28,23.32,23.32,0,0,0-6.37,4.77,22.65,22.65,0,0,0-6,13.27,32.89,32.89,0,0,0,0,4.44,22.67,22.67,0,0,0,6,13.26,22.9,22.9,0,0,0,6.45,4.81,23.18,23.18,0,0,0,7.59,2.25,29,29,0,0,0,5,0,22.55,22.55,0,0,0,12.73-5.76,22.66,22.66,0,0,0,7.32-14.55,32.89,32.89,0,0,0,0-4.44A22.66,22.66,0,0,0,54,22.76c-.61-.48-2.13-1.51-2.84-1.92A23.3,23.3,0,0,0,42.33,18C41.72,18,39.2,17.9,38.79,17.94Zm8.7,6.31a4.52,4.52,0,0,1,2.12,1.35,3.76,3.76,0,0,1,1.14,2.46,1.27,1.27,0,0,1-1.43,1.37c-1.79,0-4-2.27-3.81-4C45.59,24.44,46.4,24,47.49,24.25ZM27.09,29a7.37,7.37,0,0,1,1.79.91,5.61,5.61,0,0,1,1,.92c.05.1-.23.54-.94,1.53l-.11.14-.38-.4c-1.08-1.13-2.15-1.46-3.15-1a3.11,3.11,0,0,0-1.4,3.59,5.71,5.71,0,0,0,1.77,2.72c.27.22.36.32.34.41a13,13,0,0,1-.66,1.74,5.81,5.81,0,0,1-1.32-1,6.8,6.8,0,0,1-2.2-4.67,5.52,5.52,0,0,1,.78-2.77,7.47,7.47,0,0,1,1.66-1.74A3.38,3.38,0,0,1,27.09,29Zm7.37.73c4,1.35,10.4,6.64,15,12.46a4.81,4.81,0,0,1,.46.63,7.22,7.22,0,0,1-1.66.78,9.71,9.71,0,0,1-3.92.47c-2.21-.17-3.25-.59-3.76-1.53-.3-.58-.36-1-.41-3A14.28,14.28,0,0,0,40,37.09a5.25,5.25,0,0,0-1.2-2.47A7.63,7.63,0,0,0,33.38,32l-.73,0-.1-.31a4.11,4.11,0,0,1-.21-1.45.85.85,0,0,1,.41-.58A4,4,0,0,1,34.46,29.75Zm-3,2.52c1.29,3.85,6.2,9.94,11.77,14.6a26.8,26.8,0,0,0,7.68,4.81l.75.24-.26.2A33,33,0,0,1,46.66,55a18.46,18.46,0,0,1-7.87,2.2,11.33,11.33,0,0,1-4.28-.58A13.28,13.28,0,0,1,27.08,50a11.68,11.68,0,0,1-1.19-5.73,15.34,15.34,0,0,1,.9-4.73,24.77,24.77,0,0,1,2.13-4.71,28.94,28.94,0,0,1,2.24-3.35S31.29,31.86,31.42,32.27Zm23.12.54c1.54.77,2.56,2.44,3,4.92a21.78,21.78,0,0,1,0,4.05,19.44,19.44,0,0,1-.67,3.12,12.24,12.24,0,0,1-3,5.08c-.67.68-.73.72-1,.76a6.31,6.31,0,0,1-3.23-1,8,8,0,0,1-1-.55,2.82,2.82,0,0,1,.63-.23,9.37,9.37,0,0,0,2.41-1.16,9.92,9.92,0,0,0,1.93-1.72c.36-.49.12-1-.45-1-.26,0-.29,0-.82.55A8.38,8.38,0,0,1,48.17,48c-1.18.26-1,.29-1.88-.33s-2.33-1.79-2.78-2.2l-.23-.21.44,0c.24,0,1,0,1.63,0a7.92,7.92,0,0,0,1.85-.14A9.91,9.91,0,0,0,52,42.91a6.22,6.22,0,0,0,1.34-1.78A6.68,6.68,0,0,0,54,37.05a6.78,6.78,0,0,0-.81-2.35,3.17,3.17,0,0,1-.51-1.31c0-.42,0-.54.35-.7A1.72,1.72,0,0,1,54.54,32.81Zm-20.33.53a6.08,6.08,0,0,1,4.2,3,6.44,6.44,0,0,1,.5,3.17l0,1.56-.54-.56a33.22,33.22,0,0,1-3.64-4.64c-.58-.88-1.56-2.52-1.56-2.61A4.41,4.41,0,0,1,34.21,33.34Z" transform="translate(0 0)"/><path d="M46.36,24.71a.92.92,0,0,0-.45.86,4.24,4.24,0,0,0,2.45,3.22,1.71,1.71,0,0,0,1,.19c.49,0,.55,0,.7-.14a1,1,0,0,0,.32-.82A4.14,4.14,0,0,0,48,24.9a2.22,2.22,0,0,0-1-.3C46.64,24.58,46.56,24.59,46.36,24.71Z" transform="translate(0 0)"/><path d="M25.75,29.29a3.22,3.22,0,0,0-1.84.95,5.19,5.19,0,0,0-1.5,2.44,6.46,6.46,0,0,0,0,2.36,7.33,7.33,0,0,0,2.4,3.65l.39.31.19-.54.2-.54-.4-.39A4.87,4.87,0,0,1,23.5,33,3.18,3.18,0,0,1,25,30.8a2.88,2.88,0,0,1,3.44.74l.34.31.31-.45.31-.46-.32-.29a5.77,5.77,0,0,0-2.47-1.31A2.09,2.09,0,0,0,25.75,29.29Z" transform="translate(0 0)"/><path d="M32.82,30.1c-.09.13-.1.23-.07.53a4.69,4.69,0,0,0,.11.64l.08.26.56,0a8.19,8.19,0,0,1,5.2,2.36c1.43,1.43,1.88,2.74,1.89,5.47,0,2.38.18,3.07.92,3.58a5.69,5.69,0,0,0,2.84.7,9.16,9.16,0,0,0,4.59-.76l.41-.18-.2-.25A47.3,47.3,0,0,0,45,37.88a37.56,37.56,0,0,0-9.26-7.12A5.62,5.62,0,0,0,33.43,30C32.93,30,32.92,30,32.82,30.1Z" transform="translate(0 0)"/><path d="M30.65,32.9a26.06,26.06,0,0,0-4,8.54,13.7,13.7,0,0,0-.15,5.75,12.68,12.68,0,0,0,6.8,8.48,11,11,0,0,0,5.46,1.11,16.43,16.43,0,0,0,5.7-1.26,30.71,30.71,0,0,0,5.84-3.18c.32-.22.37-.28.27-.31a15.11,15.11,0,0,1-1.83-.81c-5.45-2.82-12.87-10-16.3-15.8A22.12,22.12,0,0,1,31.22,33a2.58,2.58,0,0,0-.21-.47S30.83,32.64,30.65,32.9ZM37,43.15A3.92,3.92,0,0,1,40,46a3.68,3.68,0,0,1,.13,1.29,4.48,4.48,0,0,1-.16,1.42,7.67,7.67,0,0,1-3.44,4.45,6.62,6.62,0,0,1-3.45.88,4.07,4.07,0,0,1-1.83-.49c-1.89-.93-2.65-3.21-1.86-5.62a7.39,7.39,0,0,1,2.38-3.39A6.23,6.23,0,0,1,37,43.15Z" transform="translate(0 0)"/><path d="M35.26,43.44a7.05,7.05,0,0,0-5.34,4.14,4.72,4.72,0,0,0,.18,4.51,3.28,3.28,0,0,0,1.36,1.14,3.67,3.67,0,0,0,2,.42,6.85,6.85,0,0,0,6-5.1,4.34,4.34,0,0,0,.13-1.3,3.6,3.6,0,0,0-3.57-3.83A4.67,4.67,0,0,0,35.26,43.44Zm1.37,1.33s0,.17-.07.38a5.41,5.41,0,0,0-.21.86,2.1,2.1,0,0,1-.51,1.24,2,2,0,0,1-1.36.66,3.26,3.26,0,0,0-3,3c-.13.75-.15.78-.35.52a3.58,3.58,0,0,1,0-3.59,6.5,6.5,0,0,1,2.56-2.61,6.62,6.62,0,0,1,1.34-.46A5,5,0,0,1,36.63,44.77Zm1.41,1a3.79,3.79,0,0,1-.32,3.88,7.58,7.58,0,0,1-1.87,1.92,4.68,4.68,0,0,1-2.77.83c-.55,0-.67-.09-.61-.22A4,4,0,0,0,32.78,51a2.17,2.17,0,0,1,.63-1.33,2.08,2.08,0,0,1,1.22-.53,3,3,0,0,0,2-1,2.9,2.9,0,0,0,.91-1.84C37.75,45.37,37.76,45.35,38,45.78Z" transform="translate(0 0)"/><path d="M34.92,45.22a4.59,4.59,0,0,0-2.27,1.34,4.87,4.87,0,0,0-1.11,1.52,3.55,3.55,0,0,0-.41,1.77v.59L31.3,50a3.59,3.59,0,0,1,3.07-2.46,1.84,1.84,0,0,0,1.19-.57A2.06,2.06,0,0,0,36,45.83c0-.23.09-.48.1-.58l0-.16h-.37A3.53,3.53,0,0,0,34.92,45.22Z" transform="translate(0 0)"/><path d="M37.91,46.85a4,4,0,0,1-.28.73,4,4,0,0,1-1.51,1.58,4.41,4.41,0,0,1-1.49.43,1.63,1.63,0,0,0-1.26.84,2.6,2.6,0,0,0-.17.66,6,6,0,0,1-.12.63A2,2,0,0,0,33,52a3.35,3.35,0,0,0,1.36-.14,5.25,5.25,0,0,0,2-1.22A4.62,4.62,0,0,0,38,46.9l0-.3Z" transform="translate(0 0)"/><path d="M53.2,33.05c-.27.13-.16.58.32,1.43a7.63,7.63,0,0,1,.8,2.07,8.64,8.64,0,0,1,0,2.87A7.4,7.4,0,0,1,50,44.71a10.43,10.43,0,0,1-4.42,1.07l-1.05,0,.63.5c.34.27.92.71,1.27,1,.73.53.76.53,1.47.38a8.24,8.24,0,0,0,4.17-2.31c.67-.66.87-.76,1.35-.66a1.06,1.06,0,0,1,.72,1.44,7.45,7.45,0,0,1-1.46,1.52A10.63,10.63,0,0,1,50,49.23l-.33.11.59.28a8,8,0,0,0,2.25.72l.43,0,.49-.46a13.17,13.17,0,0,0,3.66-7.69,18.89,18.89,0,0,0,.12-3.72c-.26-2.62-1.27-4.53-2.85-5.32A1.36,1.36,0,0,0,53.2,33.05Z" transform="translate(0 0)"/><path d="M34.22,34.21a40,40,0,0,0,4,5.5l.28.31v-.55a12.15,12.15,0,0,0-.21-2.26,4.47,4.47,0,0,0-1.69-2.34,6.07,6.07,0,0,0-2.42-1.11l-.28-.06Z" transform="translate(0 0)"/><path class="b" d="M7.48,41.24l-.22,0,.33.18A4.08,4.08,0,0,1,9,42.84a9.46,9.46,0,0,0,1.2-.66,3.89,3.89,0,0,0-.41-.31A3.6,3.6,0,0,0,7.48,41.24Z" transform="translate(0 0)"/><path class="b" d="M71.82,41.25a4.24,4.24,0,0,0-1.51.63,4.34,4.34,0,0,0-.41.3,8.93,8.93,0,0,0,1.21.66,4.11,4.11,0,0,1,1.42-1.39c.23-.13.32-.2.23-.2l-.38,0A2.15,2.15,0,0,0,71.82,41.25Z" transform="translate(0 0)"/><path class="b" d="M6,42.53a3,3,0,0,0,.1,1.68,3.8,3.8,0,0,0,.6,1.14l.2.28.25-.52a6.24,6.24,0,0,1,.56-.92A2.61,2.61,0,0,0,8,43.73a2.23,2.23,0,0,0-.62-.81,2.56,2.56,0,0,0-.81-.48l-.49-.18A1.59,1.59,0,0,0,6,42.53Z" transform="translate(0 0)"/><path class="b" d="M73.55,42.44a2.49,2.49,0,0,0-.79.48,2.17,2.17,0,0,0-.61.81,2.1,2.1,0,0,0,.31.46,7.22,7.22,0,0,1,.55.92l.25.52.2-.28a3.55,3.55,0,0,0,.77-2.06c0-.44-.1-1-.18-1Z" transform="translate(0 0)"/><path class="b" d="M11,43.35a4.22,4.22,0,0,0-1.87,1.18,3.38,3.38,0,0,0-.87,1.15,5,5,0,0,0-.33.83,3.34,3.34,0,0,0,0,1.18,1,1,0,0,0,.22-.32,4,4,0,0,1,1-1.11,4.47,4.47,0,0,1,1.47-.66,2.7,2.7,0,0,0,1.18-.55,3,3,0,0,0,.81-1.22l.14-.39-.16-.07A3.82,3.82,0,0,0,11,43.35Z" transform="translate(0 0)"/><path class="b" d="M67.72,43.3l-.23.08-.13.06.15.39a2.78,2.78,0,0,0,.81,1.22,2.66,2.66,0,0,0,1.17.55,4.63,4.63,0,0,1,1.48.66,4.19,4.19,0,0,1,1,1.11.85.85,0,0,0,.22.32,3.68,3.68,0,0,0,0-1.18,5,5,0,0,0-.33-.83,3.26,3.26,0,0,0-.87-1.15A4.07,4.07,0,0,0,69,43.35,4.33,4.33,0,0,0,67.72,43.3Z" transform="translate(0 0)"/><path class="b" d="M13.52,45A3.61,3.61,0,0,1,12,46.5a5.72,5.72,0,0,1-1,.37,3,3,0,0,0-.65.22A2.62,2.62,0,0,0,9.06,48.6L8.92,49l.25.06a2.28,2.28,0,0,0,1.09.07,4.44,4.44,0,0,0,3.3-2.71,3.5,3.5,0,0,0,.21-1.5l0-.28Z" transform="translate(0 0)"/><path class="b" d="M66.34,44.93a4.22,4.22,0,0,0,2.71,4A2.84,2.84,0,0,0,71,49L71.2,49l-.14-.38a2.65,2.65,0,0,0-1.31-1.51,3.19,3.19,0,0,0-.65-.22,5.72,5.72,0,0,1-1-.37A3.63,3.63,0,0,1,66.59,45l-.22-.41Z" transform="translate(0 0)"/><path class="a" d="M29.24,67.3A2.16,2.16,0,0,0,28,68.85C27.69,70,28.3,71,29.39,71a1.2,1.2,0,0,0,1-.41A2.82,2.82,0,0,0,31,68.14,1.53,1.53,0,0,0,29.24,67.3Z" transform="translate(0 0)"/></svg>